<?xml version="1.0" encoding="utf-8"?>
<!-- Svg Vector Icons : http://www.onlinewebfonts.com/icon -->
<!DOCTYPE svg PUBLIC "-//W3C//DTD SVG 1.1//EN" "http://www.w3.org/Graphics/SVG/1.1/DTD/svg11.dtd">
<svg version="1.1" xmlns="http://www.w3.org/2000/svg" xmlns:xlink="http://www.w3.org/1999/xlink" x="0px" y="0px" viewBox="0 0 1000 1000" enable-background="new 0 0 1000 1000" xml:space="preserve">
<metadata> Svg Vector Icons : http://www.onlinewebfonts.com/icon </metadata>
<g><path d="M892,10H108c-54.1,0-98,43.9-98,98v784c0,54.1,43.9,98,98,98h784c54.1,0,98-43.9,98-98V108C990,53.9,946.1,10,892,10z M492.9,209c82.5,0,149.6,72.4,149.6,161.3s-67.1,161.3-149.6,161.3c-82.5,0-149.7-72.4-149.7-161.3S410.4,209,492.9,209z M743.5,762.8c0,58.7-87.5,58.7-188.9,58.7H442.4c-105.6,0-189,0-189-58.7v-12.1c0-112.3,84.8-203.6,189-203.6h112.1c104.2,0,188.9,91.3,188.9,203.6V762.8z"/></g>
</svg>